<svg width="720" height="540" viewBox="0 0 720 540" fill="none" xmlns="http://www.w3.org/2000/svg">
  <defs>
    <linearGradient id="bg" x1="58" y1="36" x2="662" y2="512" gradientUnits="userSpaceOnUse">
      <stop offset="0" stop-color="#F7F3ED"/>
      <stop offset="1" stop-color="#E9F1EA"/>
    </linearGradient>
    <linearGradient id="card" x1="130" y1="100" x2="508" y2="420" gradientUnits="userSpaceOnUse">
      <stop offset="0" stop-color="#FFFFFF"/>
      <stop offset="1" stop-color="#F3F7F4"/>
    </linearGradient>
    <linearGradient id="cta" x1="466" y1="88" x2="642" y2="188" gradientUnits="userSpaceOnUse">
      <stop offset="0" stop-color="#2B9B63"/>
      <stop offset="1" stop-color="#1F7A4D"/>
    </linearGradient>
    <filter id="shadow" x="82" y="62" width="520" height="398" filterUnits="userSpaceOnUse" color-interpolation-filters="sRGB">
      <feDropShadow dx="0" dy="18" stdDeviation="20" flood-color="#1A3C28" flood-opacity="0.16"/>
    </filter>
  </defs>
  <rect x="28" y="24" width="664" height="492" rx="48" fill="url(#bg)"/>
  <rect x="96" y="72" width="500" height="356" rx="36" fill="url(#card)" filter="url(#shadow)"/>
  <rect x="132" y="116" width="208" height="158" rx="20" fill="#E6F2EA"/>
  <rect x="148" y="136" width="176" height="28" rx="14" fill="#FFFFFF"/>
  <rect x="148" y="176" width="132" height="22" rx="11" fill="#F0F4F1"/>
  <rect x="148" y="210" width="96" height="20" rx="10" fill="#F0F4F1"/>
  <rect x="132" y="290" width="332" height="28" rx="14" fill="#E9EFEA"/>
  <rect x="132" y="330" width="260" height="24" rx="12" fill="#E9EFEA"/>
  <rect x="132" y="366" width="300" height="24" rx="12" fill="#E9EFEA"/>
  <rect x="360" y="116" width="212" height="118" rx="22" fill="#FFFFFF"/>
  <rect x="382" y="136" width="168" height="18" rx="9" fill="#1F7A4D" opacity="0.18"/>
  <rect x="382" y="164" width="132" height="16" rx="8" fill="#1F7A4D" opacity="0.12"/>
  <rect x="382" y="190" width="118" height="16" rx="8" fill="#1F7A4D" opacity="0.12"/>
  <rect x="452" y="252" width="180" height="94" rx="26" fill="url(#cta)"/>
  <rect x="474" y="274" width="96" height="14" rx="7" fill="#FFFFFF" opacity="0.9"/>
  <rect x="474" y="296" width="132" height="16" rx="8" fill="#FFFFFF" opacity="0.9"/>
  <rect x="474" y="320" width="96" height="16" rx="8" fill="#FFFFFF" opacity="0.9"/>
  <circle cx="528" cy="414" r="32" fill="#1F7A4D" opacity="0.12"/>
  <circle cx="570" cy="96" r="22" fill="#1F7A4D" opacity="0.12"/>
  <circle cx="170" cy="430" r="28" fill="#1F7A4D" opacity="0.1"/>
</svg>
